<svg width="24" height="24" viewBox="0 0 24 24" fill="none" xmlns="http://www.w3.org/2000/svg">
<g clip-path="url(#clip0_310_4273)">
<path d="M20.9998 0.675049H2.9998C1.7248 0.675049 0.674805 1.72505 0.674805 3.00005V12.75C0.674805 14.025 1.7248 15.075 2.9998 15.075H20.9998C22.2748 15.075 23.3248 14.025 23.3248 12.75V3.00005C23.3248 1.72505 22.2748 0.675049 20.9998 0.675049ZM21.6748 12.75C21.6748 13.125 21.3748 13.425 20.9998 13.425H2.9998C2.6248 13.425 2.3248 13.125 2.3248 12.75V3.00005C2.3248 2.62505 2.6248 2.32505 2.9998 2.32505H20.9998C21.3748 2.32505 21.6748 2.62505 21.6748 3.00005V12.75Z" fill="#111928"/>
<path d="M20.4747 17.7375H3.52471C3.07471 17.7375 2.69971 18.1125 2.69971 18.5625C2.69971 19.0125 3.07471 19.3875 3.52471 19.3875H20.4747C20.9247 19.3875 21.2997 19.0125 21.2997 18.5625C21.2997 18.1125 20.9247 17.7375 20.4747 17.7375Z" fill="#111928"/>
<path d="M20.4747 21.675H3.52471C3.07471 21.675 2.69971 22.05 2.69971 22.5C2.69971 22.95 3.07471 23.325 3.52471 23.325H20.4747C20.9247 23.325 21.2997 22.95 21.2997 22.5C21.2997 22.05 20.9247 21.675 20.4747 21.675Z" fill="#111928"/>
</g>
<defs>
<clipPath id="clip0_310_4273">
<rect width="24" height="24" fill="white"/>
</clipPath>
</defs>
</svg>
